<svg xmlns="http://www.w3.org/2000/svg" viewBox="0 0 64 64" fill="none">
  <rect x="2" y="2" width="60" height="60" rx="16" fill="#FF8C55"/>
  <path d="M16 12h24l10 10v28a4 4 0 0 1-4 4H16a4 4 0 0 1-4-4V16a4 4 0 0 1 4-4Z" fill="#FFFDF8"/>
  <path d="M40 12v10h10" fill="#FFF3E7"/>
  <path d="M40 12v10h10" stroke="#F1DCC9" stroke-width="1.5" stroke-linejoin="round"/>
  <path d="m21 34 7 7 15-15" stroke="#FF8C55" stroke-width="5" stroke-linecap="round" stroke-linejoin="round"/>
  <path d="M36.5 28.5c2.5-3.6 8-2.2 8 2.2 0 3.2-3.5 5.8-8 8.8" stroke="#FF8C55" stroke-width="4" stroke-linecap="round"/>
</svg>
